<?xml version="1.0" encoding="UTF-8" standalone="no"?>
<!DOCTYPE svg PUBLIC "-//W3C//DTD SVG 1.1//EN"
 "http://www.w3.org/Graphics/SVG/1.1/DTD/svg11.dtd">
<!-- Generated by graphviz version 2.49.3 (20211023.0002)
 -->
<!-- Pages: 1 -->
<svg width="1155pt" height="2021pt"
 viewBox="0.00 0.00 1154.84 2021.00" xmlns="http://www.w3.org/2000/svg" xmlns:xlink="http://www.w3.org/1999/xlink">
<g id="graph0" class="graph" transform="scale(1 1) rotate(0) translate(4 2017)">
<polygon fill="white" stroke="transparent" points="-4,4 -4,-2017 1150.84,-2017 1150.84,4 -4,4"/>
<!-- Start -->
<g id="node1" class="node">
<title>Start</title>
<ellipse fill="none" stroke="black" cx="632.79" cy="-1995" rx="27.9" ry="18"/>
<text text-anchor="middle" x="632.79" y="-1991.3" font-family="Times New Roman,serif" font-size="14.00">Start</text>
</g>
<!-- Start$sub78 -->
<g id="node2" class="node">
<title>Start$sub78</title>
<ellipse fill="none" stroke="black" cx="505.79" cy="-1908" rx="53.89" ry="18"/>
<text text-anchor="middle" x="505.79" y="-1904.3" font-family="Times New Roman,serif" font-size="14.00">Start$sub78</text>
</g>
<!-- Start&#45;&gt;Start$sub78 -->
<g id="edge1" class="edge">
<title>Start&#45;&gt;Start$sub78</title>
<path fill="none" stroke="black" d="M605.73,-1990.29C572.45,-1985.11 518.87,-1974.56 506.79,-1959 501.83,-1952.61 500.35,-1944.25 500.47,-1936.2"/>
<polygon fill="black" stroke="black" points="503.98,-1936.26 501.4,-1925.98 497.01,-1935.62 503.98,-1936.26"/>
<text text-anchor="middle" x="622.29" y="-1947.8" font-family="Times New Roman,serif" font-size="14.00">No te preocupes mamá, seré responsable</text>
</g>
<!-- Start$sub81 -->
<g id="node46" class="node">
<title>Start$sub81</title>
<ellipse fill="none" stroke="black" cx="759.79" cy="-1908" rx="53.89" ry="18"/>
<text text-anchor="middle" x="759.79" y="-1904.3" font-family="Times New Roman,serif" font-size="14.00">Start$sub81</text>
</g>
<!-- Start&#45;&gt;Start$sub81 -->
<g id="edge69" class="edge">
<title>Start&#45;&gt;Start$sub81</title>
<path fill="none" stroke="black" d="M660.47,-1991.03C683.67,-1987.21 716.35,-1978.54 737.79,-1959 744.54,-1952.85 749.33,-1944.25 752.67,-1935.91"/>
<polygon fill="black" stroke="black" points="756,-1937.01 755.97,-1926.41 749.38,-1934.71 756,-1937.01"/>
<text text-anchor="middle" x="891.79" y="-1947.8" font-family="Times New Roman,serif" font-size="14.00">¿Eso significa que dentro de poco tendré un móvil?</text>
</g>
<!-- Start$con$sub76 -->
<g id="node3" class="node">
<title>Start$con$sub76</title>
<ellipse fill="none" stroke="black" cx="562.79" cy="-1821" rx="72.29" ry="18"/>
<text text-anchor="middle" x="562.79" y="-1817.3" font-family="Times New Roman,serif" font-size="14.00">Start$con$sub76</text>
</g>
<!-- Start$sub78&#45;&gt;Start$con$sub76 -->
<g id="edge2" class="edge">
<title>Start$sub78&#45;&gt;Start$con$sub76</title>
<path fill="none" stroke="black" d="M491.03,-1890.51C483.83,-1880.4 478.04,-1867.43 484.79,-1857 489.6,-1849.57 496.41,-1843.7 504.02,-1839.07"/>
<polygon fill="black" stroke="black" points="506.05,-1841.95 513.25,-1834.18 502.77,-1835.77 506.05,-1841.95"/>
<text text-anchor="middle" x="526.79" y="-1860.8" font-family="Times New Roman,serif" font-size="14.00">Seguir jugando</text>
</g>
<!-- Start$con$sub81 -->
<g id="node45" class="node">
<title>Start$con$sub81</title>
<ellipse fill="none" stroke="black" cx="724.79" cy="-1821" rx="72.29" ry="18"/>
<text text-anchor="middle" x="724.79" y="-1817.3" font-family="Times New Roman,serif" font-size="14.00">Start$con$sub81</text>
</g>
<!-- Start$sub78&#45;&gt;Start$con$sub81 -->
<g id="edge67" class="edge">
<title>Start$sub78&#45;&gt;Start$con$sub81</title>
<path fill="none" stroke="black" d="M558.73,-1904.11C593.75,-1900.34 639.68,-1891.69 675.79,-1872 682.21,-1868.5 693.41,-1857.26 703.48,-1846.32"/>
<polygon fill="black" stroke="black" points="706.09,-1848.65 710.2,-1838.89 700.9,-1843.95 706.09,-1848.65"/>
<text text-anchor="middle" x="722.29" y="-1860.8" font-family="Times New Roman,serif" font-size="14.00">Ir a dormir</text>
</g>
<!-- Day2 -->
<g id="node4" class="node">
<title>Day2</title>
<ellipse fill="none" stroke="black" cx="642.79" cy="-1734" rx="29.8" ry="18"/>
<text text-anchor="middle" x="642.79" y="-1730.3" font-family="Times New Roman,serif" font-size="14.00">Day2</text>
</g>
<!-- Start$con$sub76&#45;&gt;Day2 -->
<g id="edge3" class="edge">
<title>Start$con$sub76&#45;&gt;Day2</title>
<path fill="none" stroke="black" d="M578.6,-1803.21C590.89,-1790.14 608.07,-1771.89 621.57,-1757.55"/>
<polygon fill="black" stroke="black" points="624.32,-1759.73 628.63,-1750.05 619.23,-1754.93 624.32,-1759.73"/>
<text text-anchor="middle" x="622.79" y="-1773.8" font-family="Times New Roman,serif" font-size="14.00">Day2</text>
</g>
<!-- Day2$sub261 -->
<g id="node5" class="node">
<title>Day2$sub261</title>
<ellipse fill="none" stroke="black" cx="573.79" cy="-1647" rx="60.39" ry="18"/>
<text text-anchor="middle" x="573.79" y="-1643.3" font-family="Times New Roman,serif" font-size="14.00">Day2$sub261</text>
</g>
<!-- Day2&#45;&gt;Day2$sub261 -->
<g id="edge4" class="edge">
<title>Day2&#45;&gt;Day2$sub261</title>
<path fill="none" stroke="black" d="M630.14,-1717.41C619.99,-1704.91 605.56,-1687.13 593.84,-1672.7"/>
<polygon fill="black" stroke="black" points="596.33,-1670.21 587.31,-1664.65 590.9,-1674.62 596.33,-1670.21"/>
<text text-anchor="middle" x="638.29" y="-1686.8" font-family="Times New Roman,serif" font-size="14.00">Ayudarle</text>
</g>
<!-- Day2$sub267 -->
<g id="node44" class="node">
<title>Day2$sub267</title>
<ellipse fill="none" stroke="black" cx="712.79" cy="-1647" rx="60.39" ry="18"/>
<text text-anchor="middle" x="712.79" y="-1643.3" font-family="Times New Roman,serif" font-size="14.00">Day2$sub267</text>
</g>
<!-- Day2&#45;&gt;Day2$sub267 -->
<g id="edge65" class="edge">
<title>Day2&#45;&gt;Day2$sub267</title>
<path fill="none" stroke="black" d="M655.63,-1717.41C665.93,-1704.91 680.56,-1687.13 692.45,-1672.7"/>
<polygon fill="black" stroke="black" points="695.42,-1674.6 699.08,-1664.65 690.02,-1670.15 695.42,-1674.6"/>
<text text-anchor="middle" x="715.79" y="-1686.8" font-family="Times New Roman,serif" font-size="14.00">No ayudarle</text>
</g>
<!-- Day3 -->
<g id="node6" class="node">
<title>Day3</title>
<ellipse fill="none" stroke="black" cx="642.79" cy="-1560" rx="29.8" ry="18"/>
<text text-anchor="middle" x="642.79" y="-1556.3" font-family="Times New Roman,serif" font-size="14.00">Day3</text>
</g>
<!-- Day2$sub261&#45;&gt;Day3 -->
<g id="edge5" class="edge">
<title>Day2$sub261&#45;&gt;Day3</title>
<path fill="none" stroke="black" d="M587.42,-1629.21C597.8,-1616.43 612.21,-1598.68 623.72,-1584.49"/>
<polygon fill="black" stroke="black" points="626.53,-1586.58 630.12,-1576.61 621.1,-1582.17 626.53,-1586.58"/>
<text text-anchor="middle" x="627.79" y="-1599.8" font-family="Times New Roman,serif" font-size="14.00">Day3</text>
</g>
<!-- Day3$sub17 -->
<g id="node7" class="node">
<title>Day3$sub17</title>
<ellipse fill="none" stroke="black" cx="577.79" cy="-1473" rx="55.79" ry="18"/>
<text text-anchor="middle" x="577.79" y="-1469.3" font-family="Times New Roman,serif" font-size="14.00">Day3$sub17</text>
</g>
<!-- Day3&#45;&gt;Day3$sub17 -->
<g id="edge6" class="edge">
<title>Day3&#45;&gt;Day3$sub17</title>
<path fill="none" stroke="black" d="M628.78,-1544.03C623.3,-1537.96 617.07,-1530.79 611.79,-1524 605.8,-1516.29 599.67,-1507.59 594.3,-1499.63"/>
<polygon fill="black" stroke="black" points="597.05,-1497.44 588.61,-1491.05 591.22,-1501.31 597.05,-1497.44"/>
<text text-anchor="middle" x="643.29" y="-1512.8" font-family="Times New Roman,serif" font-size="14.00">Preguntarle</text>
</g>
<!-- Day3$sub35 -->
<g id="node43" class="node">
<title>Day3$sub35</title>
<ellipse fill="none" stroke="black" cx="707.79" cy="-1473" rx="55.79" ry="18"/>
<text text-anchor="middle" x="707.79" y="-1469.3" font-family="Times New Roman,serif" font-size="14.00">Day3$sub35</text>
</g>
<!-- Day3&#45;&gt;Day3$sub35 -->
<g id="edge62" class="edge">
<title>Day3&#45;&gt;Day3$sub35</title>
<path fill="none" stroke="black" d="M657.35,-1544.12C663.02,-1538.07 669.43,-1530.88 674.79,-1524 680.74,-1516.37 686.72,-1507.69 691.93,-1499.72"/>
<polygon fill="black" stroke="black" points="694.98,-1501.43 697.43,-1491.12 689.09,-1497.66 694.98,-1501.43"/>
<text text-anchor="middle" x="726.29" y="-1512.8" font-family="Times New Roman,serif" font-size="14.00">No preguntarle</text>
</g>
<!-- Day3$con$sub235 -->
<g id="node8" class="node">
<title>Day3$con$sub235</title>
<ellipse fill="none" stroke="black" cx="504.79" cy="-1332" rx="78.79" ry="18"/>
<text text-anchor="middle" x="504.79" y="-1328.3" font-family="Times New Roman,serif" font-size="14.00">Day3$con$sub235</text>
</g>
<!-- Day3$sub17&#45;&gt;Day3$con$sub235 -->
<g id="edge7" class="edge">
<title>Day3$sub17&#45;&gt;Day3$con$sub235</title>
<path fill="none" stroke="black" d="M528.28,-1464.39C512.36,-1459.35 496.38,-1450.95 486.79,-1437 471.07,-1414.11 480.27,-1381.86 490.4,-1359.37"/>
<polygon fill="black" stroke="black" points="493.69,-1360.61 494.88,-1350.09 487.38,-1357.57 493.69,-1360.61"/>
<text text-anchor="middle" x="524.79" y="-1425.8" font-family="Times New Roman,serif" font-size="14.00">Enviar la foto</text>
</g>
<!-- Day3$con$sub251 -->
<g id="node35" class="node">
<title>Day3$con$sub251</title>
<ellipse fill="none" stroke="black" cx="745.79" cy="-1386" rx="78.79" ry="18"/>
<text text-anchor="middle" x="745.79" y="-1382.3" font-family="Times New Roman,serif" font-size="14.00">Day3$con$sub251</text>
</g>
<!-- Day3$sub17&#45;&gt;Day3$con$sub251 -->
<g id="edge47" class="edge">
<title>Day3$sub17&#45;&gt;Day3$con$sub251</title>
<path fill="none" stroke="black" d="M614.39,-1459.27C629.52,-1453.37 646.95,-1445.73 661.79,-1437 671.07,-1431.55 671.8,-1427.91 680.79,-1422 688.5,-1416.94 697.01,-1411.95 705.27,-1407.41"/>
<polygon fill="black" stroke="black" points="706.93,-1410.49 714.07,-1402.66 703.61,-1404.32 706.93,-1410.49"/>
<text text-anchor="middle" x="727.79" y="-1425.8" font-family="Times New Roman,serif" font-size="14.00">No enviar la foto</text>
</g>
<!-- Day3$con$con$sub74 -->
<g id="node9" class="node">
<title>Day3$con$con$sub74</title>
<ellipse fill="none" stroke="black" cx="553.79" cy="-1191" rx="92.08" ry="18"/>
<text text-anchor="middle" x="553.79" y="-1187.3" font-family="Times New Roman,serif" font-size="14.00">Day3$con$con$sub74</text>
</g>
<!-- Day3$con$sub235&#45;&gt;Day3$con$con$sub74 -->
<g id="edge8" class="edge">
<title>Day3$con$sub235&#45;&gt;Day3$con$con$sub74</title>
<path fill="none" stroke="black" d="M490.93,-1314.2C487.22,-1308.73 483.71,-1302.41 481.79,-1296 477.21,-1280.67 475.46,-1274.69 481.79,-1260 489.59,-1241.92 504.82,-1226.41 519.27,-1214.78"/>
<polygon fill="black" stroke="black" points="521.8,-1217.25 527.63,-1208.4 517.56,-1211.69 521.8,-1217.25"/>
<text text-anchor="middle" x="505.79" y="-1274.3" font-family="Times New Roman,serif" font-size="14.00">Contarle</text>
</g>
<!-- Day3$con$con$sub101 -->
<g id="node32" class="node">
<title>Day3$con$con$sub101</title>
<ellipse fill="none" stroke="black" cx="776.79" cy="-1191" rx="96.68" ry="18"/>
<text text-anchor="middle" x="776.79" y="-1187.3" font-family="Times New Roman,serif" font-size="14.00">Day3$con$con$sub101</text>
</g>
<!-- Day3$con$sub235&#45;&gt;Day3$con$con$sub101 -->
<g id="edge42" class="edge">
<title>Day3$con$sub235&#45;&gt;Day3$con$con$sub101</title>
<path fill="none" stroke="black" d="M576.91,-1324.76C644.48,-1318.26 736.98,-1307.45 749.79,-1296 771.14,-1276.92 776.6,-1243.33 777.54,-1219.49"/>
<polygon fill="black" stroke="black" points="781.04,-1219.37 777.7,-1209.31 774.04,-1219.26 781.04,-1219.37"/>
<text text-anchor="middle" x="802.79" y="-1274.3" font-family="Times New Roman,serif" font-size="14.00">No contarle</text>
</g>
<!-- Day4 -->
<g id="node10" class="node">
<title>Day4</title>
<ellipse fill="none" stroke="black" cx="724.79" cy="-1017" rx="29.8" ry="18"/>
<text text-anchor="middle" x="724.79" y="-1013.3" font-family="Times New Roman,serif" font-size="14.00">Day4</text>
</g>
<!-- Day3$con$con$sub74&#45;&gt;Day4 -->
<g id="edge9" class="edge">
<title>Day3$con$con$sub74&#45;&gt;Day4</title>
<path fill="none" stroke="black" d="M550.25,-1172.67C546.74,-1150.37 544.22,-1111.48 562.79,-1086 591.45,-1046.68 647.29,-1029.96 685.31,-1022.94"/>
<polygon fill="black" stroke="black" points="686.25,-1026.33 695.52,-1021.21 685.08,-1019.43 686.25,-1026.33"/>
<text text-anchor="middle" x="577.79" y="-1100.3" font-family="Times New Roman,serif" font-size="14.00">Day4</text>
</g>
<!-- Day4$sub92 -->
<g id="node11" class="node">
<title>Day4$sub92</title>
<ellipse fill="none" stroke="black" cx="635.79" cy="-930" rx="55.79" ry="18"/>
<text text-anchor="middle" x="635.79" y="-926.3" font-family="Times New Roman,serif" font-size="14.00">Day4$sub92</text>
</g>
<!-- Day4&#45;&gt;Day4$sub92 -->
<g id="edge10" class="edge">
<title>Day4&#45;&gt;Day4$sub92</title>
<path fill="none" stroke="black" d="M695.47,-1012.69C675.35,-1008.74 650,-1000.05 636.79,-981 632.25,-974.45 630.84,-966.17 630.89,-958.24"/>
<polygon fill="black" stroke="black" points="634.39,-958.44 631.67,-948.2 627.41,-957.9 634.39,-958.44"/>
<text text-anchor="middle" x="714.29" y="-969.8" font-family="Times New Roman,serif" font-size="14.00">Dar una vuelta con Amanda</text>
</g>
<!-- Day4$sub132 -->
<g id="node31" class="node">
<title>Day4$sub132</title>
<ellipse fill="none" stroke="black" cx="813.79" cy="-930" rx="60.39" ry="18"/>
<text text-anchor="middle" x="813.79" y="-926.3" font-family="Times New Roman,serif" font-size="14.00">Day4$sub132</text>
</g>
<!-- Day4&#45;&gt;Day4$sub132 -->
<g id="edge38" class="edge">
<title>Day4&#45;&gt;Day4$sub132</title>
<path fill="none" stroke="black" d="M750.34,-1007.43C764.09,-1001.74 780.5,-993.08 791.79,-981 797.87,-974.5 802.45,-966.05 805.81,-957.95"/>
<polygon fill="black" stroke="black" points="809.16,-958.99 809.33,-948.39 802.59,-956.57 809.16,-958.99"/>
<text text-anchor="middle" x="831.79" y="-969.8" font-family="Times New Roman,serif" font-size="14.00">Irse a casa</text>
</g>
<!-- Day4$con$sub6 -->
<g id="node12" class="node">
<title>Day4$con$sub6</title>
<ellipse fill="none" stroke="black" cx="643.79" cy="-843" rx="69.59" ry="18"/>
<text text-anchor="middle" x="643.79" y="-839.3" font-family="Times New Roman,serif" font-size="14.00">Day4$con$sub6</text>
</g>
<!-- Day4$sub92&#45;&gt;Day4$con$sub6 -->
<g id="edge11" class="edge">
<title>Day4$sub92&#45;&gt;Day4$con$sub6</title>
<path fill="none" stroke="black" d="M617.48,-912.85C608.96,-903.3 601.71,-890.8 606.79,-879 608.52,-874.98 610.97,-871.21 613.79,-867.73"/>
<polygon fill="black" stroke="black" points="616.57,-869.88 620.88,-860.2 611.47,-865.08 616.57,-869.88"/>
<text text-anchor="middle" x="633.79" y="-882.8" font-family="Times New Roman,serif" font-size="14.00">Quedarse</text>
</g>
<!-- Day4$con$sub54 -->
<g id="node30" class="node">
<title>Day4$con$sub54</title>
<ellipse fill="none" stroke="black" cx="824.79" cy="-843" rx="74.19" ry="18"/>
<text text-anchor="middle" x="824.79" y="-839.3" font-family="Times New Roman,serif" font-size="14.00">Day4$con$sub54</text>
</g>
<!-- Day4$sub92&#45;&gt;Day4$con$sub54 -->
<g id="edge33" class="edge">
<title>Day4$sub92&#45;&gt;Day4$con$sub54</title>
<path fill="none" stroke="black" d="M677.83,-918.08C696.78,-912.28 719.06,-904.22 737.79,-894 747.24,-888.85 747.75,-884.82 756.79,-879 765,-873.72 774.09,-868.59 782.89,-863.95"/>
<polygon fill="black" stroke="black" points="784.61,-867 791.91,-859.32 781.41,-860.78 784.61,-867"/>
<text text-anchor="middle" x="787.29" y="-882.8" font-family="Times New Roman,serif" font-size="14.00">Ir al cuarto</text>
</g>
<!-- Day4$con$con$sub121 -->
<g id="node13" class="node">
<title>Day4$con$con$sub121</title>
<ellipse fill="none" stroke="black" cx="618.79" cy="-756" rx="96.68" ry="18"/>
<text text-anchor="middle" x="618.79" y="-752.3" font-family="Times New Roman,serif" font-size="14.00">Day4$con$con$sub121</text>
</g>
<!-- Day4$con$sub6&#45;&gt;Day4$con$con$sub121 -->
<g id="edge12" class="edge">
<title>Day4$con$sub6&#45;&gt;Day4$con$con$sub121</title>
<path fill="none" stroke="black" d="M616.79,-826.09C610.37,-820.88 604.35,-814.48 600.79,-807 597.19,-799.42 598.42,-790.91 601.51,-783.09"/>
<polygon fill="black" stroke="black" points="604.7,-784.52 605.99,-774 598.43,-781.42 604.7,-784.52"/>
<text text-anchor="middle" x="627.79" y="-795.8" font-family="Times New Roman,serif" font-size="14.00">Preguntar</text>
</g>
<!-- Day4$con$con$sub130 -->
<g id="node29" class="node">
<title>Day4$con$con$sub130</title>
<ellipse fill="none" stroke="black" cx="830.79" cy="-756" rx="96.68" ry="18"/>
<text text-anchor="middle" x="830.79" y="-752.3" font-family="Times New Roman,serif" font-size="14.00">Day4$con$con$sub130</text>
</g>
<!-- Day4$con$sub6&#45;&gt;Day4$con$con$sub130 -->
<g id="edge31" class="edge">
<title>Day4$con$sub6&#45;&gt;Day4$con$con$sub130</title>
<path fill="none" stroke="black" d="M685.25,-828.34C700.35,-822.64 717.27,-815.38 731.79,-807 741.11,-801.62 741.57,-797.53 750.79,-792 760.15,-786.39 770.57,-781.16 780.71,-776.56"/>
<polygon fill="black" stroke="black" points="782.17,-779.74 789.91,-772.5 779.35,-773.33 782.17,-779.74"/>
<text text-anchor="middle" x="787.79" y="-795.8" font-family="Times New Roman,serif" font-size="14.00">No preguntar</text>
</g>
<!-- Day5 -->
<g id="node14" class="node">
<title>Day5</title>
<ellipse fill="none" stroke="black" cx="723.79" cy="-669" rx="29.8" ry="18"/>
<text text-anchor="middle" x="723.79" y="-665.3" font-family="Times New Roman,serif" font-size="14.00">Day5</text>
</g>
<!-- Day4$con$con$sub121&#45;&gt;Day5 -->
<g id="edge13" class="edge">
<title>Day4$con$con$sub121&#45;&gt;Day5</title>
<path fill="none" stroke="black" d="M639.54,-738.21C656.54,-724.45 680.65,-704.92 698.73,-690.29"/>
<polygon fill="black" stroke="black" points="700.99,-692.96 706.56,-683.95 696.59,-687.52 700.99,-692.96"/>
<text text-anchor="middle" x="691.79" y="-708.8" font-family="Times New Roman,serif" font-size="14.00">Day5</text>
</g>
<!-- Day5$sub283 -->
<g id="node15" class="node">
<title>Day5$sub283</title>
<ellipse fill="none" stroke="black" cx="677.79" cy="-582" rx="60.39" ry="18"/>
<text text-anchor="middle" x="677.79" y="-578.3" font-family="Times New Roman,serif" font-size="14.00">Day5$sub283</text>
</g>
<!-- Day5&#45;&gt;Day5$sub283 -->
<g id="edge14" class="edge">
<title>Day5&#45;&gt;Day5$sub283</title>
<path fill="none" stroke="black" d="M714.92,-651.61C708.39,-639.54 699.37,-622.88 691.86,-609"/>
<polygon fill="black" stroke="black" points="694.79,-607.05 686.95,-599.92 688.63,-610.38 694.79,-607.05"/>
<text text-anchor="middle" x="737.79" y="-621.8" font-family="Times New Roman,serif" font-size="14.00">Mandar foto</text>
</g>
<!-- Day5$sub299 -->
<g id="node38" class="node">
<title>Day5$sub299</title>
<ellipse fill="none" stroke="black" cx="832.79" cy="-528" rx="60.39" ry="18"/>
<text text-anchor="middle" x="832.79" y="-524.3" font-family="Times New Roman,serif" font-size="14.00">Day5$sub299</text>
</g>
<!-- Day5&#45;&gt;Day5$sub299 -->
<g id="edge54" class="edge">
<title>Day5&#45;&gt;Day5$sub299</title>
<path fill="none" stroke="black" d="M746,-656.67C756.27,-650.65 768.09,-642.52 776.79,-633 797.76,-610.06 813.53,-577.83 822.91,-555.35"/>
<polygon fill="black" stroke="black" points="826.16,-556.65 826.65,-546.07 819.66,-554.04 826.16,-556.65"/>
<text text-anchor="middle" x="832.79" y="-621.8" font-family="Times New Roman,serif" font-size="14.00">No mandar foto</text>
</g>
<!-- Malo -->
<g id="node16" class="node">
<title>Malo</title>
<ellipse fill="none" stroke="black" cx="646.79" cy="-474" rx="29.5" ry="18"/>
<text text-anchor="middle" x="646.79" y="-470.3" font-family="Times New Roman,serif" font-size="14.00">Malo</text>
</g>
<!-- Day5$sub283&#45;&gt;Malo -->
<g id="edge15" class="edge">
<title>Day5$sub283&#45;&gt;Malo</title>
<path fill="none" stroke="black" d="M672.81,-563.97C667.91,-547.2 660.34,-521.34 654.63,-501.81"/>
<polygon fill="black" stroke="black" points="657.93,-500.6 651.76,-491.99 651.21,-502.57 657.93,-500.6"/>
<text text-anchor="middle" x="681.29" y="-524.3" font-family="Times New Roman,serif" font-size="14.00">Malo</text>
</g>
<!-- Malo$sub139 -->
<g id="node17" class="node">
<title>Malo$sub139</title>
<ellipse fill="none" stroke="black" cx="332.79" cy="-387" rx="59.59" ry="18"/>
<text text-anchor="middle" x="332.79" y="-383.3" font-family="Times New Roman,serif" font-size="14.00">Malo$sub139</text>
</g>
<!-- Malo&#45;&gt;Malo$sub139 -->
<g id="edge16" class="edge">
<title>Malo&#45;&gt;Malo$sub139</title>
<path fill="none" stroke="black" d="M619.2,-467.69C587.52,-461.41 534.09,-450.25 488.79,-438 451.88,-428.02 410.71,-414.73 379.94,-404.36"/>
<polygon fill="black" stroke="black" points="380.92,-401 370.33,-401.11 378.68,-407.63 380.92,-401"/>
<text text-anchor="middle" x="542.79" y="-426.8" font-family="Times New Roman,serif" font-size="14.00">Contarle a Amanda</text>
</g>
<!-- Malo$sub141 -->
<g id="node23" class="node">
<title>Malo$sub141</title>
<ellipse fill="none" stroke="black" cx="744.79" cy="-387" rx="59.59" ry="18"/>
<text text-anchor="middle" x="744.79" y="-383.3" font-family="Times New Roman,serif" font-size="14.00">Malo$sub141</text>
</g>
<!-- Malo&#45;&gt;Malo$sub141 -->
<g id="edge23" class="edge">
<title>Malo&#45;&gt;Malo$sub141</title>
<path fill="none" stroke="black" d="M662.98,-458.96C677.97,-445.96 700.54,-426.38 718.19,-411.08"/>
<polygon fill="black" stroke="black" points="720.64,-413.58 725.9,-404.39 716.05,-408.29 720.64,-413.58"/>
<text text-anchor="middle" x="763.79" y="-426.8" font-family="Times New Roman,serif" font-size="14.00">No contarle a Amanda</text>
</g>
<!-- MaloFinal -->
<g id="node24" class="node">
<title>MaloFinal</title>
<ellipse fill="none" stroke="black" cx="658.79" cy="-300" rx="46.59" ry="18"/>
<text text-anchor="middle" x="658.79" y="-296.3" font-family="Times New Roman,serif" font-size="14.00">MaloFinal</text>
</g>
<!-- Malo&#45;&gt;MaloFinal -->
<g id="edge40" class="edge">
<title>Malo&#45;&gt;MaloFinal</title>
<path fill="none" stroke="black" d="M637.31,-456.77C626.56,-436.29 611.53,-400 619.79,-369 623.88,-353.66 632.34,-338.17 640.34,-325.86"/>
<polygon fill="black" stroke="black" points="643.3,-327.75 646.02,-317.51 637.5,-323.82 643.3,-327.75"/>
<text text-anchor="middle" x="647.79" y="-383.3" font-family="Times New Roman,serif" font-size="14.00">MaloFinal</text>
</g>
<!-- MaloAmanda -->
<g id="node18" class="node">
<title>MaloAmanda</title>
<ellipse fill="none" stroke="black" cx="239.79" cy="-300" rx="59.59" ry="18"/>
<text text-anchor="middle" x="239.79" y="-296.3" font-family="Times New Roman,serif" font-size="14.00">MaloAmanda</text>
</g>
<!-- Malo$sub139&#45;&gt;MaloAmanda -->
<g id="edge17" class="edge">
<title>Malo$sub139&#45;&gt;MaloAmanda</title>
<path fill="none" stroke="black" d="M314.86,-369.61C300.84,-356.79 281.15,-338.8 265.46,-324.46"/>
<polygon fill="black" stroke="black" points="267.41,-321.5 257.67,-317.34 262.69,-326.67 267.41,-321.5"/>
<text text-anchor="middle" x="330.79" y="-339.8" font-family="Times New Roman,serif" font-size="14.00">MaloAmanda</text>
</g>
<!-- MaloAmanda$sub53 -->
<g id="node19" class="node">
<title>MaloAmanda$sub53</title>
<ellipse fill="none" stroke="black" cx="85.79" cy="-159" rx="85.59" ry="18"/>
<text text-anchor="middle" x="85.79" y="-155.3" font-family="Times New Roman,serif" font-size="14.00">MaloAmanda$sub53</text>
</g>
<!-- MaloAmanda&#45;&gt;MaloAmanda$sub53 -->
<g id="edge18" class="edge">
<title>MaloAmanda&#45;&gt;MaloAmanda$sub53</title>
<path fill="none" stroke="black" d="M185.53,-292.4C149.85,-286.87 107.63,-277.66 95.79,-264 77.66,-243.08 77.59,-210.14 80.5,-186.95"/>
<polygon fill="black" stroke="black" points="83.96,-187.46 81.99,-177.05 77.04,-186.42 83.96,-187.46"/>
<text text-anchor="middle" x="134.29" y="-252.8" font-family="Times New Roman,serif" font-size="14.00">Darle la razón</text>
</g>
<!-- MaloAmanda$sub104 -->
<g id="node21" class="node">
<title>MaloAmanda$sub104</title>
<ellipse fill="none" stroke="black" cx="367.79" cy="-213" rx="90.18" ry="18"/>
<text text-anchor="middle" x="367.79" y="-209.3" font-family="Times New Roman,serif" font-size="14.00">MaloAmanda$sub104</text>
</g>
<!-- MaloAmanda&#45;&gt;MaloAmanda$sub104 -->
<g id="edge20" class="edge">
<title>MaloAmanda&#45;&gt;MaloAmanda$sub104</title>
<path fill="none" stroke="black" d="M263.27,-283.41C283.28,-270.12 312.26,-250.88 334.63,-236.02"/>
<polygon fill="black" stroke="black" points="336.76,-238.81 343.16,-230.36 332.89,-232.98 336.76,-238.81"/>
<text text-anchor="middle" x="334.79" y="-252.8" font-family="Times New Roman,serif" font-size="14.00">Negarse</text>
</g>
<!-- MaloAmigos -->
<g id="node22" class="node">
<title>MaloAmigos</title>
<ellipse fill="none" stroke="black" cx="367.79" cy="-105" rx="57.69" ry="18"/>
<text text-anchor="middle" x="367.79" y="-101.3" font-family="Times New Roman,serif" font-size="14.00">MaloAmigos</text>
</g>
<!-- MaloAmanda&#45;&gt;MaloAmigos -->
<g id="edge35" class="edge">
<title>MaloAmanda&#45;&gt;MaloAmigos</title>
<path fill="none" stroke="black" d="M223.36,-282.43C204.45,-261.28 178.16,-223.97 195.79,-195 210.11,-171.47 276.56,-141.6 322.54,-123.15"/>
<polygon fill="black" stroke="black" points="324.01,-126.33 332.02,-119.39 321.43,-119.82 324.01,-126.33"/>
<text text-anchor="middle" x="232.29" y="-209.3" font-family="Times New Roman,serif" font-size="14.00">MaloAmigos</text>
</g>
<!-- Final -->
<g id="node20" class="node">
<title>Final</title>
<ellipse fill="none" stroke="black" cx="662.79" cy="-18" rx="28.7" ry="18"/>
<text text-anchor="middle" x="662.79" y="-14.3" font-family="Times New Roman,serif" font-size="14.00">Final</text>
</g>
<!-- MaloAmanda$sub53&#45;&gt;Final -->
<g id="edge19" class="edge">
<title>MaloAmanda$sub53&#45;&gt;Final</title>
<path fill="none" stroke="black" d="M120.63,-142.48C157.69,-126.51 218.37,-101.93 272.79,-87 399.2,-52.32 553.71,-31.57 624.3,-23.25"/>
<polygon fill="black" stroke="black" points="624.96,-26.69 634.49,-22.06 624.15,-19.74 624.96,-26.69"/>
<text text-anchor="middle" x="286.79" y="-101.3" font-family="Times New Roman,serif" font-size="14.00">Final</text>
</g>
<!-- MaloAmanda$sub104&#45;&gt;MaloAmigos -->
<g id="edge21" class="edge">
<title>MaloAmanda$sub104&#45;&gt;MaloAmigos</title>
<path fill="none" stroke="black" d="M367.79,-194.97C367.79,-178.38 367.79,-152.88 367.79,-133.43"/>
<polygon fill="black" stroke="black" points="371.29,-133.34 367.79,-123.34 364.29,-133.34 371.29,-133.34"/>
<text text-anchor="middle" x="404.29" y="-155.3" font-family="Times New Roman,serif" font-size="14.00">MaloAmigos</text>
</g>
<!-- MaloAmigos&#45;&gt;Final -->
<g id="edge22" class="edge">
<title>MaloAmigos&#45;&gt;Final</title>
<path fill="none" stroke="black" d="M408.81,-92.18C467.09,-75.39 572.84,-44.92 627.69,-29.11"/>
<polygon fill="black" stroke="black" points="628.67,-32.47 637.31,-26.34 626.74,-25.75 628.67,-32.47"/>
<text text-anchor="middle" x="547.79" y="-57.8" font-family="Times New Roman,serif" font-size="14.00">Final</text>
</g>
<!-- Malo$sub141&#45;&gt;MaloFinal -->
<g id="edge24" class="edge">
<title>Malo$sub141&#45;&gt;MaloFinal</title>
<path fill="none" stroke="black" d="M728.21,-369.61C715.16,-356.71 696.81,-338.57 682.25,-324.18"/>
<polygon fill="black" stroke="black" points="684.6,-321.59 675.03,-317.05 679.68,-326.57 684.6,-321.59"/>
<text text-anchor="middle" x="734.79" y="-339.8" font-family="Times New Roman,serif" font-size="14.00">MaloFinal</text>
</g>
<!-- MaloFinal$sub28 -->
<g id="node25" class="node">
<title>MaloFinal$sub28</title>
<ellipse fill="none" stroke="black" cx="549.79" cy="-213" rx="73.39" ry="18"/>
<text text-anchor="middle" x="549.79" y="-209.3" font-family="Times New Roman,serif" font-size="14.00">MaloFinal$sub28</text>
</g>
<!-- MaloFinal&#45;&gt;MaloFinal$sub28 -->
<g id="edge25" class="edge">
<title>MaloFinal&#45;&gt;MaloFinal$sub28</title>
<path fill="none" stroke="black" d="M613.08,-295.77C569,-291.58 506.83,-282.51 491.79,-264 482.77,-252.89 491.59,-242.28 504.85,-233.72"/>
<polygon fill="black" stroke="black" points="506.66,-236.71 513.55,-228.66 503.15,-230.66 506.66,-236.71"/>
<text text-anchor="middle" x="568.29" y="-252.8" font-family="Times New Roman,serif" font-size="14.00">Contarles lo que ha pasado</text>
</g>
<!-- MaloFinal$sub31 -->
<g id="node27" class="node">
<title>MaloFinal$sub31</title>
<ellipse fill="none" stroke="black" cx="822.79" cy="-213" rx="73.39" ry="18"/>
<text text-anchor="middle" x="822.79" y="-209.3" font-family="Times New Roman,serif" font-size="14.00">MaloFinal$sub31</text>
</g>
<!-- MaloFinal&#45;&gt;MaloFinal$sub31 -->
<g id="edge28" class="edge">
<title>MaloFinal&#45;&gt;MaloFinal$sub31</title>
<path fill="none" stroke="black" d="M685.51,-285.15C712.16,-271.34 753.39,-249.97 783.72,-234.25"/>
<polygon fill="black" stroke="black" points="785.48,-237.28 792.75,-229.57 782.26,-231.06 785.48,-237.28"/>
<text text-anchor="middle" x="789.29" y="-252.8" font-family="Times New Roman,serif" font-size="14.00">No decir nada</text>
</g>
<!-- MaloSilencio -->
<g id="node28" class="node">
<title>MaloSilencio</title>
<ellipse fill="none" stroke="black" cx="662.79" cy="-105" rx="57.69" ry="18"/>
<text text-anchor="middle" x="662.79" y="-101.3" font-family="Times New Roman,serif" font-size="14.00">MaloSilencio</text>
</g>
<!-- MaloFinal&#45;&gt;MaloSilencio -->
<g id="edge36" class="edge">
<title>MaloFinal&#45;&gt;MaloSilencio</title>
<path fill="none" stroke="black" d="M659.15,-281.87C659.84,-248.32 661.39,-173.71 662.23,-133.29"/>
<polygon fill="black" stroke="black" points="665.73,-133.16 662.44,-123.09 658.73,-133.01 665.73,-133.16"/>
<text text-anchor="middle" x="697.29" y="-209.3" font-family="Times New Roman,serif" font-size="14.00">MaloSilencio</text>
</g>
<!-- MaloPadres -->
<g id="node26" class="node">
<title>MaloPadres</title>
<ellipse fill="none" stroke="black" cx="532.79" cy="-105" rx="53.89" ry="18"/>
<text text-anchor="middle" x="532.79" y="-101.3" font-family="Times New Roman,serif" font-size="14.00">MaloPadres</text>
</g>
<!-- MaloFinal$sub28&#45;&gt;MaloPadres -->
<g id="edge26" class="edge">
<title>MaloFinal$sub28&#45;&gt;MaloPadres</title>
<path fill="none" stroke="black" d="M547.06,-194.97C544.38,-178.28 540.26,-152.58 537.14,-133.08"/>
<polygon fill="black" stroke="black" points="540.56,-132.31 535.52,-122.99 533.64,-133.42 540.56,-132.31"/>
<text text-anchor="middle" x="578.29" y="-155.3" font-family="Times New Roman,serif" font-size="14.00">MaloPadres</text>
</g>
<!-- MaloPadres&#45;&gt;Final -->
<g id="edge27" class="edge">
<title>MaloPadres&#45;&gt;Final</title>
<path fill="none" stroke="black" d="M556.33,-88.61C578.52,-74.1 611.77,-52.36 635.2,-37.04"/>
<polygon fill="black" stroke="black" points="637.2,-39.92 643.65,-31.51 633.37,-34.06 637.2,-39.92"/>
<text text-anchor="middle" x="619.79" y="-57.8" font-family="Times New Roman,serif" font-size="14.00">Final</text>
</g>
<!-- MaloFinal$sub31&#45;&gt;MaloSilencio -->
<g id="edge29" class="edge">
<title>MaloFinal$sub31&#45;&gt;MaloSilencio</title>
<path fill="none" stroke="black" d="M785.79,-197.37C773.04,-191.7 758.93,-184.72 746.79,-177 725.06,-163.17 702.9,-144.2 686.8,-129.34"/>
<polygon fill="black" stroke="black" points="689.11,-126.7 679.42,-122.42 684.32,-131.81 689.11,-126.7"/>
<text text-anchor="middle" x="783.29" y="-155.3" font-family="Times New Roman,serif" font-size="14.00">MaloSilencio</text>
</g>
<!-- MaloSilencio&#45;&gt;Final -->
<g id="edge30" class="edge">
<title>MaloSilencio&#45;&gt;Final</title>
<path fill="none" stroke="black" d="M662.79,-86.8C662.79,-75.16 662.79,-59.55 662.79,-46.24"/>
<polygon fill="black" stroke="black" points="666.29,-46.18 662.79,-36.18 659.29,-46.18 666.29,-46.18"/>
<text text-anchor="middle" x="676.79" y="-57.8" font-family="Times New Roman,serif" font-size="14.00">Final</text>
</g>
<!-- Day4$con$con$sub130&#45;&gt;Day5 -->
<g id="edge32" class="edge">
<title>Day4$con$con$sub130&#45;&gt;Day5</title>
<path fill="none" stroke="black" d="M809.91,-738.41C792.5,-724.58 767.65,-704.84 749.12,-690.12"/>
<polygon fill="black" stroke="black" points="751.1,-687.22 741.09,-683.74 746.75,-692.7 751.1,-687.22"/>
<text text-anchor="middle" x="797.79" y="-708.8" font-family="Times New Roman,serif" font-size="14.00">Day5</text>
</g>
<!-- Day4$con$sub54&#45;&gt;Day4$con$con$sub121 -->
<g id="edge34" class="edge">
<title>Day4$con$sub54&#45;&gt;Day4$con$con$sub121</title>
<path fill="none" stroke="black" d="M766.65,-831.66C731.3,-824.77 689.94,-815.46 673.79,-807 670.16,-805.1 656.59,-792.77 643.83,-780.83"/>
<polygon fill="black" stroke="black" points="646.18,-778.23 636.5,-773.92 641.38,-783.33 646.18,-778.23"/>
<text text-anchor="middle" x="700.79" y="-795.8" font-family="Times New Roman,serif" font-size="14.00">Preguntar</text>
</g>
<!-- Day4$con$sub54&#45;&gt;Day4$con$con$sub130 -->
<g id="edge37" class="edge">
<title>Day4$con$sub54&#45;&gt;Day4$con$con$sub130</title>
<path fill="none" stroke="black" d="M827,-824.93C827.67,-819.24 828.34,-812.85 828.79,-807 829.36,-799.67 829.77,-791.72 830.06,-784.36"/>
<polygon fill="black" stroke="black" points="833.57,-784.26 830.42,-774.14 826.57,-784.01 833.57,-784.26"/>
<text text-anchor="middle" x="865.79" y="-795.8" font-family="Times New Roman,serif" font-size="14.00">No preguntar</text>
</g>
<!-- Day4$sub132&#45;&gt;Day4$con$sub6 -->
<g id="edge39" class="edge">
<title>Day4$sub132&#45;&gt;Day4$con$sub6</title>
<path fill="none" stroke="black" d="M759.07,-922.17C734.55,-917.2 706.18,-908.66 683.79,-894 674.21,-887.73 665.86,-878.4 659.3,-869.5"/>
<polygon fill="black" stroke="black" points="662.14,-867.45 653.58,-861.2 656.38,-871.42 662.14,-867.45"/>
<text text-anchor="middle" x="710.79" y="-882.8" font-family="Times New Roman,serif" font-size="14.00">Quedarse</text>
</g>
<!-- Day4$sub132&#45;&gt;Day4$con$sub54 -->
<g id="edge41" class="edge">
<title>Day4$sub132&#45;&gt;Day4$con$sub54</title>
<path fill="none" stroke="black" d="M818.27,-912.02C819.61,-906.33 820.94,-899.92 821.79,-894 822.84,-886.71 823.52,-878.78 823.96,-871.42"/>
<polygon fill="black" stroke="black" points="827.47,-871.35 824.46,-861.19 820.48,-871.01 827.47,-871.35"/>
<text text-anchor="middle" x="853.29" y="-882.8" font-family="Times New Roman,serif" font-size="14.00">Ir al cuarto</text>
</g>
<!-- Day3$con$con$sub101$sub19 -->
<g id="node33" class="node">
<title>Day3$con$con$sub101$sub19</title>
<ellipse fill="none" stroke="black" cx="724.79" cy="-1104" rx="122.68" ry="18"/>
<text text-anchor="middle" x="724.79" y="-1100.3" font-family="Times New Roman,serif" font-size="14.00">Day3$con$con$sub101$sub19</text>
</g>
<!-- Day3$con$con$sub101&#45;&gt;Day3$con$con$sub101$sub19 -->
<g id="edge43" class="edge">
<title>Day3$con$con$sub101&#45;&gt;Day3$con$con$sub101$sub19</title>
<path fill="none" stroke="black" d="M766.27,-1172.8C758.94,-1160.82 749.03,-1144.62 740.73,-1131.06"/>
<polygon fill="black" stroke="black" points="743.5,-1128.88 735.3,-1122.18 737.53,-1132.53 743.5,-1128.88"/>
<text text-anchor="middle" x="777.79" y="-1143.8" font-family="Times New Roman,serif" font-size="14.00">Contarle</text>
</g>
<!-- Day3$con$con$sub101$sub39 -->
<g id="node34" class="node">
<title>Day3$con$con$sub101$sub39</title>
<ellipse fill="none" stroke="black" cx="988.79" cy="-1104" rx="122.68" ry="18"/>
<text text-anchor="middle" x="988.79" y="-1100.3" font-family="Times New Roman,serif" font-size="14.00">Day3$con$con$sub101$sub39</text>
</g>
<!-- Day3$con$con$sub101&#45;&gt;Day3$con$con$sub101$sub39 -->
<g id="edge45" class="edge">
<title>Day3$con$con$sub101&#45;&gt;Day3$con$con$sub101$sub39</title>
<path fill="none" stroke="black" d="M815.68,-1174.41C850.35,-1160.51 901.3,-1140.08 938.96,-1124.98"/>
<polygon fill="black" stroke="black" points="940.74,-1128.04 948.71,-1121.07 938.13,-1121.54 940.74,-1128.04"/>
<text text-anchor="middle" x="927.79" y="-1143.8" font-family="Times New Roman,serif" font-size="14.00">No contarle</text>
</g>
<!-- Day3$con$con$sub101$sub19&#45;&gt;Day4 -->
<g id="edge44" class="edge">
<title>Day3$con$con$sub101$sub19&#45;&gt;Day4</title>
<path fill="none" stroke="black" d="M724.79,-1085.8C724.79,-1074.16 724.79,-1058.55 724.79,-1045.24"/>
<polygon fill="black" stroke="black" points="728.29,-1045.18 724.79,-1035.18 721.29,-1045.18 728.29,-1045.18"/>
<text text-anchor="middle" x="739.79" y="-1056.8" font-family="Times New Roman,serif" font-size="14.00">Day4</text>
</g>
<!-- Day3$con$con$sub101$sub39&#45;&gt;Day4 -->
<g id="edge46" class="edge">
<title>Day3$con$con$sub101$sub39&#45;&gt;Day4</title>
<path fill="none" stroke="black" d="M940.37,-1087.41C888.23,-1070.62 806.52,-1044.31 760.12,-1029.37"/>
<polygon fill="black" stroke="black" points="761.09,-1026.01 750.5,-1026.28 758.94,-1032.67 761.09,-1026.01"/>
<text text-anchor="middle" x="886.79" y="-1056.8" font-family="Times New Roman,serif" font-size="14.00">Day4</text>
</g>
<!-- Day3$con$sub251$sub8 -->
<g id="node36" class="node">
<title>Day3$con$sub251$sub8</title>
<ellipse fill="none" stroke="black" cx="639.79" cy="-1278" rx="100.98" ry="18"/>
<text text-anchor="middle" x="639.79" y="-1274.3" font-family="Times New Roman,serif" font-size="14.00">Day3$con$sub251$sub8</text>
</g>
<!-- Day3$con$sub251&#45;&gt;Day3$con$sub251$sub8 -->
<g id="edge48" class="edge">
<title>Day3$con$sub251&#45;&gt;Day3$con$sub251$sub8</title>
<path fill="none" stroke="black" d="M728.76,-1367.97C711.22,-1350.43 683.73,-1322.94 663.95,-1303.16"/>
<polygon fill="black" stroke="black" points="666.33,-1300.58 656.78,-1295.99 661.38,-1305.53 666.33,-1300.58"/>
<text text-anchor="middle" x="745.79" y="-1328.3" font-family="Times New Roman,serif" font-size="14.00">Enviar la foto</text>
</g>
<!-- Day3$con$sub251$sub13 -->
<g id="node37" class="node">
<title>Day3$con$sub251$sub13</title>
<ellipse fill="none" stroke="black" cx="965.79" cy="-1278" rx="104.78" ry="18"/>
<text text-anchor="middle" x="965.79" y="-1274.3" font-family="Times New Roman,serif" font-size="14.00">Day3$con$sub251$sub13</text>
</g>
<!-- Day3$con$sub251&#45;&gt;Day3$con$sub251$sub13 -->
<g id="edge51" class="edge">
<title>Day3$con$sub251&#45;&gt;Day3$con$sub251$sub13</title>
<path fill="none" stroke="black" d="M778.25,-1369.36C816.59,-1350.89 880.49,-1320.1 922.88,-1299.67"/>
<polygon fill="black" stroke="black" points="924.62,-1302.72 932.11,-1295.23 921.59,-1296.41 924.62,-1302.72"/>
<text text-anchor="middle" x="934.79" y="-1328.3" font-family="Times New Roman,serif" font-size="14.00">No enviar la foto</text>
</g>
<!-- Day3$con$sub251$sub8&#45;&gt;Day3$con$con$sub74 -->
<g id="edge49" class="edge">
<title>Day3$con$sub251$sub8&#45;&gt;Day3$con$con$sub74</title>
<path fill="none" stroke="black" d="M580.81,-1263.23C570.58,-1258.21 561.19,-1251.35 554.79,-1242 550.29,-1235.42 548.89,-1227.14 548.94,-1219.21"/>
<polygon fill="black" stroke="black" points="552.44,-1219.41 549.71,-1209.17 545.46,-1218.87 552.44,-1219.41"/>
<text text-anchor="middle" x="578.79" y="-1230.8" font-family="Times New Roman,serif" font-size="14.00">Contarle</text>
</g>
<!-- Day3$con$sub251$sub8&#45;&gt;Day3$con$con$sub101 -->
<g id="edge50" class="edge">
<title>Day3$con$sub251$sub8&#45;&gt;Day3$con$con$sub101</title>
<path fill="none" stroke="black" d="M656.15,-1260.2C666.99,-1249.72 681.91,-1236.46 696.79,-1227 705.81,-1221.27 715.92,-1216.04 725.85,-1211.47"/>
<polygon fill="black" stroke="black" points="727.54,-1214.55 735.27,-1207.3 724.71,-1208.15 727.54,-1214.55"/>
<text text-anchor="middle" x="729.79" y="-1230.8" font-family="Times New Roman,serif" font-size="14.00">No contarle</text>
</g>
<!-- Day3$con$sub251$sub13&#45;&gt;Day3$con$con$sub74 -->
<g id="edge52" class="edge">
<title>Day3$con$sub251$sub13&#45;&gt;Day3$con$con$sub74</title>
<path fill="none" stroke="black" d="M890.34,-1265.51C875.9,-1263.51 860.9,-1261.58 846.79,-1260 747.97,-1248.96 717.18,-1276.13 623.79,-1242 623.72,-1241.97 603.92,-1227.83 585.41,-1214.6"/>
<polygon fill="black" stroke="black" points="587.23,-1211.6 577.06,-1208.64 583.16,-1217.3 587.23,-1211.6"/>
<text text-anchor="middle" x="647.79" y="-1230.8" font-family="Times New Roman,serif" font-size="14.00">Contarle</text>
</g>
<!-- Day3$con$sub251$sub13&#45;&gt;Day3$con$con$sub101 -->
<g id="edge53" class="edge">
<title>Day3$con$sub251$sub13&#45;&gt;Day3$con$con$sub101</title>
<path fill="none" stroke="black" d="M930.24,-1261.01C899.49,-1247.18 854.86,-1227.11 821.66,-1212.18"/>
<polygon fill="black" stroke="black" points="822.74,-1208.83 812.18,-1207.92 819.87,-1215.21 822.74,-1208.83"/>
<text text-anchor="middle" x="914.79" y="-1230.8" font-family="Times New Roman,serif" font-size="14.00">No contarle</text>
</g>
<!-- Bueno -->
<g id="node39" class="node">
<title>Bueno</title>
<ellipse fill="none" stroke="black" cx="948.79" cy="-213" rx="34.39" ry="18"/>
<text text-anchor="middle" x="948.79" y="-209.3" font-family="Times New Roman,serif" font-size="14.00">Bueno</text>
</g>
<!-- Day5$sub299&#45;&gt;Bueno -->
<g id="edge55" class="edge">
<title>Day5$sub299&#45;&gt;Bueno</title>
<path fill="none" stroke="black" d="M841.63,-509.91C850.48,-491.18 862.79,-460 862.79,-431.5 862.79,-431.5 862.79,-431.5 862.79,-299 862.79,-268.29 890.88,-244.92 914.96,-230.53"/>
<polygon fill="black" stroke="black" points="916.94,-233.43 923.92,-225.46 913.49,-227.33 916.94,-233.43"/>
<text text-anchor="middle" x="881.29" y="-383.3" font-family="Times New Roman,serif" font-size="14.00">Bueno</text>
</g>
<!-- BuenoAmanda -->
<g id="node40" class="node">
<title>BuenoAmanda</title>
<ellipse fill="none" stroke="black" cx="802.79" cy="-105" rx="64.19" ry="18"/>
<text text-anchor="middle" x="802.79" y="-101.3" font-family="Times New Roman,serif" font-size="14.00">BuenoAmanda</text>
</g>
<!-- Bueno&#45;&gt;BuenoAmanda -->
<g id="edge56" class="edge">
<title>Bueno&#45;&gt;BuenoAmanda</title>
<path fill="none" stroke="black" d="M921.8,-201.56C916.18,-199.39 910.3,-197.12 904.79,-195 883.92,-186.97 875.75,-190.34 857.79,-177 841.52,-164.91 827.59,-146.79 817.82,-131.88"/>
<polygon fill="black" stroke="black" points="820.58,-129.69 812.29,-123.09 814.65,-133.42 820.58,-129.69"/>
<text text-anchor="middle" x="899.29" y="-155.3" font-family="Times New Roman,serif" font-size="14.00">BuenoAmanda</text>
</g>
<!-- BuenoPadres -->
<g id="node41" class="node">
<title>BuenoPadres</title>
<ellipse fill="none" stroke="black" cx="943.79" cy="-105" rx="59.29" ry="18"/>
<text text-anchor="middle" x="943.79" y="-101.3" font-family="Times New Roman,serif" font-size="14.00">BuenoPadres</text>
</g>
<!-- Bueno&#45;&gt;BuenoPadres -->
<g id="edge58" class="edge">
<title>Bueno&#45;&gt;BuenoPadres</title>
<path fill="none" stroke="black" d="M947.99,-194.97C947.21,-178.38 946,-152.88 945.09,-133.43"/>
<polygon fill="black" stroke="black" points="948.58,-133.16 944.61,-123.34 941.59,-133.49 948.58,-133.16"/>
<text text-anchor="middle" x="984.29" y="-155.3" font-family="Times New Roman,serif" font-size="14.00">BuenoPadres</text>
</g>
<!-- BuenoSilencio -->
<g id="node42" class="node">
<title>BuenoSilencio</title>
<ellipse fill="none" stroke="black" cx="1083.79" cy="-105" rx="63.09" ry="18"/>
<text text-anchor="middle" x="1083.79" y="-101.3" font-family="Times New Roman,serif" font-size="14.00">BuenoSilencio</text>
</g>
<!-- Bueno&#45;&gt;BuenoSilencio -->
<g id="edge60" class="edge">
<title>Bueno&#45;&gt;BuenoSilencio</title>
<path fill="none" stroke="black" d="M977.22,-202.68C992.55,-196.81 1011.25,-188.2 1025.79,-177 1042.34,-164.25 1057.17,-145.92 1067.69,-131.07"/>
<polygon fill="black" stroke="black" points="1070.59,-133.03 1073.36,-122.8 1064.82,-129.07 1070.59,-133.03"/>
<text text-anchor="middle" x="1100.29" y="-155.3" font-family="Times New Roman,serif" font-size="14.00">BuenoSilencio</text>
</g>
<!-- BuenoAmanda&#45;&gt;Final -->
<g id="edge57" class="edge">
<title>BuenoAmanda&#45;&gt;Final</title>
<path fill="none" stroke="black" d="M777.11,-88.41C752.93,-73.73 716.75,-51.76 691.6,-36.49"/>
<polygon fill="black" stroke="black" points="693.23,-33.39 682.87,-31.19 689.6,-39.37 693.23,-33.39"/>
<text text-anchor="middle" x="754.79" y="-57.8" font-family="Times New Roman,serif" font-size="14.00">Final</text>
</g>
<!-- BuenoPadres&#45;&gt;Final -->
<g id="edge59" class="edge">
<title>BuenoPadres&#45;&gt;Final</title>
<path fill="none" stroke="black" d="M903.23,-91.73C848.09,-75.05 750.36,-45.49 698.09,-29.68"/>
<polygon fill="black" stroke="black" points="698.86,-26.25 688.27,-26.71 696.83,-32.95 698.86,-26.25"/>
<text text-anchor="middle" x="833.79" y="-57.8" font-family="Times New Roman,serif" font-size="14.00">Final</text>
</g>
<!-- BuenoSilencio&#45;&gt;Final -->
<g id="edge61" class="edge">
<title>BuenoSilencio&#45;&gt;Final</title>
<path fill="none" stroke="black" d="M1036.97,-92.74C1028.6,-90.79 1019.94,-88.8 1011.79,-87 940.9,-71.32 923.05,-67.94 851.79,-54 799.26,-43.72 738.35,-32.58 700.19,-25.69"/>
<polygon fill="black" stroke="black" points="700.52,-22.2 690.06,-23.87 699.28,-29.09 700.52,-22.2"/>
<text text-anchor="middle" x="939.79" y="-57.8" font-family="Times New Roman,serif" font-size="14.00">Final</text>
</g>
<!-- Day3$sub35&#45;&gt;Day3$con$sub235 -->
<g id="edge63" class="edge">
<title>Day3$sub35&#45;&gt;Day3$con$sub235</title>
<path fill="none" stroke="black" d="M665.78,-1461.03C630.55,-1451.72 585.41,-1439.48 581.79,-1437 552.99,-1417.2 530.76,-1383.06 517.75,-1359.32"/>
<polygon fill="black" stroke="black" points="520.67,-1357.37 512.9,-1350.16 514.49,-1360.64 520.67,-1357.37"/>
<text text-anchor="middle" x="619.79" y="-1425.8" font-family="Times New Roman,serif" font-size="14.00">Enviar la foto</text>
</g>
<!-- Day3$sub35&#45;&gt;Day3$con$sub251 -->
<g id="edge64" class="edge">
<title>Day3$sub35&#45;&gt;Day3$con$sub251</title>
<path fill="none" stroke="black" d="M749.28,-1460.7C760.83,-1455.44 772.04,-1447.85 778.79,-1437 784.12,-1428.43 780.67,-1419.18 774.34,-1410.99"/>
<polygon fill="black" stroke="black" points="776.87,-1408.58 767.57,-1403.52 771.69,-1413.28 776.87,-1408.58"/>
<text text-anchor="middle" x="827.79" y="-1425.8" font-family="Times New Roman,serif" font-size="14.00">No enviar la foto</text>
</g>
<!-- Day2$sub267&#45;&gt;Day3 -->
<g id="edge66" class="edge">
<title>Day2$sub267&#45;&gt;Day3</title>
<path fill="none" stroke="black" d="M698.96,-1629.21C688.37,-1616.35 673.64,-1598.45 661.92,-1584.22"/>
<polygon fill="black" stroke="black" points="664.48,-1581.82 655.42,-1576.33 659.07,-1586.27 664.48,-1581.82"/>
<text text-anchor="middle" x="696.79" y="-1599.8" font-family="Times New Roman,serif" font-size="14.00">Day3</text>
</g>
<!-- Start$con$sub81&#45;&gt;Day2 -->
<g id="edge68" class="edge">
<title>Start$con$sub81&#45;&gt;Day2</title>
<path fill="none" stroke="black" d="M708.59,-1803.21C695.99,-1790.14 678.38,-1771.89 664.55,-1757.55"/>
<polygon fill="black" stroke="black" points="666.77,-1754.82 657.31,-1750.05 661.73,-1759.68 666.77,-1754.82"/>
<text text-anchor="middle" x="702.79" y="-1773.8" font-family="Times New Roman,serif" font-size="14.00">Day2</text>
</g>
<!-- Start$sub81&#45;&gt;Start$con$sub76 -->
<g id="edge70" class="edge">
<title>Start$sub81&#45;&gt;Start$con$sub76</title>
<path fill="none" stroke="black" d="M705.7,-1906.8C670.34,-1904.17 624.76,-1895.8 591.79,-1872 583.67,-1866.13 577.47,-1857.23 572.93,-1848.56"/>
<polygon fill="black" stroke="black" points="576.05,-1846.97 568.64,-1839.39 569.71,-1849.93 576.05,-1846.97"/>
<text text-anchor="middle" x="633.79" y="-1860.8" font-family="Times New Roman,serif" font-size="14.00">Seguir jugando</text>
</g>
<!-- Start$sub81&#45;&gt;Start$con$sub81 -->
<g id="edge71" class="edge">
<title>Start$sub81&#45;&gt;Start$con$sub81</title>
<path fill="none" stroke="black" d="M762.98,-1889.7C764.04,-1879.77 764.04,-1867.27 759.79,-1857 758.16,-1853.07 755.86,-1849.35 753.2,-1845.91"/>
<polygon fill="black" stroke="black" points="755.76,-1843.53 746.49,-1838.41 750.55,-1848.2 755.76,-1843.53"/>
<text text-anchor="middle" x="793.29" y="-1860.8" font-family="Times New Roman,serif" font-size="14.00">Ir a dormir</text>
</g>
</g>
</svg>
